<?xml version="1.0" encoding="UTF-8"?>
<svg id="Layer_2" data-name="Layer 2" xmlns="http://www.w3.org/2000/svg" xmlns:xlink="http://www.w3.org/1999/xlink" viewBox="0 0 320 568">
  <defs>
    <style>
      .cls-1 {
        fill: #eba83b;
      }

      .cls-2 {
        filter: url(#drop-shadow-1);
      }
    </style>
    <filter id="drop-shadow-1" filterUnits="userSpaceOnUse">
      <feOffset dx="2" dy="4"/>
      <feGaussianBlur result="blur" stdDeviation="10"/>
      <feFlood flood-color="#000" flood-opacity=".5"/>
      <feComposite in2="blur" operator="in"/>
      <feComposite in="SourceGraphic"/>
    </filter>
  </defs>
  <g id="Layer_1-2" data-name="Layer 1">
    <g class="cls-2">
      <path class="cls-1" d="m0,0v568h206.8l-1.2-.44-3.79-1.07-3.64-1.22s-4.29-.55-10.54-5.34c-7.45-5.69-12.32-13.3-16.17-21.65-.44-.86-.91-1.7-1.41-2.52-.18-.29-.36-.57-.54-.85l-1.76-2.6-1.65-2.09-1.37-1.58-1.35-1.43-1.35-1.37-1.52-1.5-1.29-1.35-1.14-1.2-2.5-3.04-.34-.4-2.76-3.25s-9.07-12.29-11.73-19.53c-1.65-4.51-3.14-9.08-4.8-13.58-3.77-10.23-4.86-20.96-5.95-31.67-.15-1.48-.35-3.51-.56-5.56-.4-4.03-.81-8.1-.81-8.1l-.14-1.72-.17-1.65-.17-1.55-.33-2.25-.36-2.29-.49-2.29s-.37-2.16-.86-4.33c-.49-2.17-.42-1.15-.9-4.3-.36-2.35-.33-1.9-.6-4.44-.09-.87-.22-2.08-.41-3.86-.18-1.71-.26-3.4-.25-5.1.01-5.87,1.06-11.65,2.69-17.3,1.89-6.55,4.23-12.96,6.46-19.41.44-1.27,1.62-4.31,1.62-4.31l.78-2.11.88-2.47.69-2.05.45-1.41.51-1.73.61-1.93,1.19-5.1s2.76-16.22,4.23-24.34c.92-5.04,1.7-10.08,1.74-15.18,0-1.26-.02-2.53-.11-3.79,0-.03,0-.06,0-.09-.09-1.91.64-2.5,2.37-2.52,5.87-.07,11.74-.34,17.6-.16,8.9.29,17.8.62,26.67,1.41,7.39.66,8.81,1,8.81,1l5.68,1.52,3.97,1.34,2.58.75,2.26.51,2.31.35,2.3.19h2.02s2.21-.18,2.21-.18l10.66-.95s21.71-1.29,31.98,3.24c2.4,1.09,4.54,2.69,6.26,4.69,6.39,7.43,14.61,11.48,23.91,13.86,4.34,1.11,12.89,3.79,12.89,3.79l3.94,2.18,2.86,2.4,3.02,2.86V0H0Z"/>
      <g>
        <path class="cls-1" d="m314.12,332.67l-3.94-2.18s-8.54-2.68-12.89-3.79c-9.3-2.38-17.52-6.42-23.91-13.86-1.72-1.99-3.86-3.59-6.26-4.69-10.27-4.53-31.98-3.24-31.98-3.24l-10.66.95-2.21.18h-2.02s-2.3-.19-2.3-.19l-2.31-.35-2.26-.51-2.58-.75-3.97-1.34-5.68-1.52s-1.41-.34-8.81-1c-8.87-.79-17.77-1.12-26.67-1.41-5.86-.18-11.73.09-17.6.16-1.73.02-2.45.6-2.37,2.52,0,.03,0,.06,0,.09.09,1.27.12,2.53.11,3.79-.04,5.1-.82,10.14-1.74,15.18-1.47,8.11-4.23,24.34-4.23,24.34l-1.19,5.1-.61,1.93-.51,1.73-.45,1.41-.69,2.05-.88,2.47-.78,2.11s-1.19,3.04-1.62,4.31c-2.23,6.45-4.57,12.86-6.46,19.41-1.63,5.66-2.68,11.44-2.69,17.3,0,1.69.07,3.39.25,5.1.19,1.79.32,3,.41,3.86.27,2.54.25,2.09.6,4.44.48,3.15.41,2.13.9,4.3.49,2.17.86,4.33.86,4.33l.49,2.29.36,2.29.33,2.25.17,1.55.17,1.65.14,1.72s.4,4.07.81,8.1c.2,2.04.41,4.08.56,5.56,1.09,10.71,2.18,21.44,5.95,31.67,1.66,4.51,3.15,9.07,4.8,13.58,2.66,7.24,11.73,19.53,11.73,19.53l2.76,3.25.34.4,2.5,3.04,1.14,1.2,1.29,1.35,1.52,1.5,1.35,1.37,1.35,1.43,1.37,1.58,1.65,2.09,1.76,2.6c.19.28.37.57.54.85.51.82.98,1.66,1.41,2.52,3.85,8.35,8.72,15.95,16.17,21.65,6.25,4.79,10.54,5.34,10.54,5.34l3.64,1.22,3.79,1.07,1.2.44h5.99l-1.58-.61-1.91-.7-1.78-.65c-7.06-.49-13.14-3.61-18.72-7.89-4.13-3.16-7.45-6.91-10.24-11.05-2.17-3.22-4.02-6.68-5.68-10.28-.43-.85-.89-1.68-1.39-2.49-.17-.28-.35-.56-.54-.84l-1.73-2.56-1.62-2.06-1.35-1.55-1.33-1.41-1.33-1.35-1.5-1.47-1.27-1.33-1.12-1.18-2.46-3-.33-.39-2.71-3.2c-5.1-5.4-8.77-11.82-11.38-18.77-.06-.16-.12-.32-.18-.47-1.62-4.44-3.09-8.94-4.73-13.38-3.71-10.07-4.78-20.65-5.86-31.19-.15-1.46-.35-3.46-.55-5.48-.4-3.97-.79-7.98-.79-7.98l-.14-1.69-.17-1.63-.17-1.52-.32-2.21-.36-2.26-.48-2.26s-.36-2.13-.85-4.27c-.48-2.14-.42-1.13-.89-4.24-.35-2.32-.33-1.87-.59-4.37-.09-.85-.22-2.04-.4-3.81-.1-.9-.16-1.8-.2-2.7,0-.17-.01-.33-.02-.5,0-.25-.02-.51-.02-.76,0-.24,0-.48,0-.72,0-.11,0-.23,0-.34,0-.08,0-.17,0-.25,0-.21,0-.42,0-.63,0-.22.01-.44.02-.66,0-.19.01-.39.02-.58.02-.38.04-.77.06-1.15.01-.16.02-.31.04-.47.02-.27.04-.54.07-.81.01-.16.03-.32.05-.48.03-.29.06-.57.09-.86.01-.13.03-.25.04-.38.11-.87.23-1.73.37-2.59,0-.03.01-.07.02-.1.07-.43.15-.85.23-1.27,0-.02,0-.03,0-.05.43-2.27.98-4.53,1.63-6.76,1.86-6.45,4.17-12.77,6.36-19.12.43-1.26,1.6-4.25,1.6-4.25l.76-2.08.87-2.43.68-2.02.45-1.39.5-1.7.6-1.91,1.17-5.02s.42-2.48,1.02-5.97c.8-5.59,1.89-11.15,2.91-16.7.08-.45.16-.89.23-1.31.9-4.96,1.67-9.93,1.71-14.95,0-1.24-.02-2.49-.11-3.74,0-.03,0-.06,0-.09,0-.08,0-.16,0-.24,0,0,0-.02,0-.03,0-.1,0-.19,0-.28,0-.01,0-.03,0-.04,0-.08.01-.16.02-.24,0-.02,0-.04,0-.05.01-.07.02-.14.04-.2,0-.02,0-.04.01-.06.01-.06.03-.12.05-.18,0-.02.01-.04.02-.06.02-.05.04-.1.06-.15,0-.02.02-.04.03-.06.02-.05.05-.09.08-.13.01-.02.02-.04.03-.05.03-.04.06-.08.09-.11.01-.02.03-.03.04-.05.03-.03.07-.07.11-.1.02-.01.03-.03.05-.04.04-.03.08-.06.13-.08.02-.01.03-.02.05-.03.05-.03.1-.05.15-.07.02,0,.03-.02.05-.02.06-.02.12-.04.18-.06.01,0,.03-.01.04-.01.07-.02.14-.04.21-.05,0,0,.02,0,.03,0,.25-.05.54-.07.86-.08,4.34-.05,8.67-.21,13.01-.22,1.44,0,2.89.02,4.33.06,8.76.29,17.54.61,26.27,1.39.01,0,.02,0,.03,0,7.25.65,8.64.99,8.64.99l5.6,1.5,3.92,1.32,2.54.74,2.23.5,2.28.34,2.27.19h1.99s1.68-.13,1.68-.13c-.03-.01-.07-.03-.1-.04,2.35-.8,10.82-.93,11.09-.94h0s16.38-.97,27.25,1.77c1.55.39,3,.86,4.26,1.42,2.36,1.08,4.47,2.65,6.17,4.61,6.3,7.32,14.39,11.31,23.55,13.65,4.28,1.09,8.71,1.95,12.69,3.73,1.1.49,2.1,1.06,3.04,1.68l.84.46,2.81,2.36,2.99,2.82.8.42h0s0-1.96,0-1.96l-3.02-2.86-2.86-2.4Z"/>
        <g>
          <path class="cls-1" d="m319.2,339.47l-2.99-2.82-2.81-2.36-.84-.46c3.4,2.26,5.78,5.33,7.44,8.91v-2.83h0s-.8-.43-.8-.43Z"/>
          <path class="cls-1" d="m302.87,519.47c-1.04-2.3-2.27-4.52-3.68-6.62-1.12-1.62-1.56-1.74-3.47-2.05-.41-.07,14.22,26.46,24.27,45.07v-24.16c-3.09-.89-6.1-2.11-8.97-3.64-3.6-1.88-6.48-4.91-8.16-8.61Z"/>
          <path class="cls-1" d="m289.71,512.16c-.32,3.12.49,8.16,1.76,11.06,4.5,10.27,6.03,20.91,5.37,32.03-.32,5.32-2.54,9.38-5.85,12.76h25.48c-1.62-3.55-3.79-8.5-6.69-15.41-10.14-24.2-20.16-40.97-20.07-40.43Z"/>
          <path class="cls-1" d="m250.74,556.52c4.63-4.54,8.21-9.84,10.21-16.06.43-1.36.6-2.78.5-4.2-.21-2.7-2.75-3.91-4.98-2.4-1.31.94-2.47,2.07-3.43,3.37-5.32,6.87-10.68,13.68-17.59,19.1-7.54,5.92-15.95,9.68-25.73,9.76-.75,0-1.48-.02-2.21-.07l1.78.65,1.91.7,1.58.61h22.86c5.4-3.32,10.53-7.01,15.09-11.48Z"/>
          <path class="cls-1" d="m157.22,517.57l2.46,3,1.12,1.18,1.27,1.33,1.5,1.47,1.33,1.35,1.33,1.41,1.35,1.55,1.62,2.06,1.73,2.56c.18.28.36.56.54.84.5.81.96,1.64,1.39,2.49,1.66,3.6,3.51,7.05,5.68,10.28-2.17-3.22-4.02-6.68-5.68-10.27-.61-1.32-1.21-2.67-2-4.42,2.29.86,4.13,1.58,6,2.23,8.24,2.88,16.37,1.89,24.92.77,9.48-1.25,18.8-3.13,27.77-6.25,1.78-.62,3.56-1.23,5.3-1.92,1.28-.48,2.51-1.08,3.68-1.77,1.62-1.01,2.85-2.46,2.49-4.47-.36-2.01-2.19-2.45-3.87-2.74-5.04-.91-14.9,1.79-14.9,1.79,0,0-26.98,6.42-41.09,5.73-10.56-.51-19.75-4.08-26.99-11.77,0,0,0,0,0,0l2.71,3.2.33.39Z"/>
          <path class="cls-1" d="m140.55,351.51l-.6,1.91-.5,1.7-.45,1.39-.68,2.02-.87,2.43-.76,2.08s-1.17,2.99-1.6,4.25c-2.19,6.35-4.5,12.67-6.36,19.12-.65,2.24-1.2,4.49-1.63,6.76.43-2.27.98-4.53,1.63-6.76,1.86-6.45,4.17-12.77,6.36-19.12.43-1.26,1.22-2.39,2.1-4.06.44,1.11.73,1.75.96,2.44,3.74,10.83,7.12,16.54,17.7,26.75,10.58,10.21,15.23,11.07,24.61,14.07,9.38,3.01,15.42.2,12.92-2.05-3.17-2.88-7.29-3.9-11.22-5.26-11.22-3.89-21.4-9.47-29.28-18.56-8.48-9.77-12.13-21.26-10.88-34,.2-2.03.45-4.06.74-6.09-.6,3.49-1.02,5.97-1.02,5.97l-1.17,5.02Z"/>
          <path class="cls-1" d="m126.72,412.26c.27,2.5.24,2.06.59,4.37.47,3.1.4,2.1.89,4.24.48,2.14.85,4.27.85,4.27l.48,2.26.36,2.26.32,2.21.17,1.52.17,1.63.14,1.69s.4,4.01.79,7.98c.2,2.01.4,4.02.55,5.48,1.07,10.55,2.15,21.12,5.86,31.19,1.63,4.44,3.1,8.94,4.73,13.38.06.15.12.31.18.47-.06-.16-.12-.31-.18-.47-1.62-4.44-3.09-8.94-4.73-13.38-3.71-10.07-4.78-20.65-5.86-31.19-.44-4.34-.75-8.69-1.15-13.38,2.3,2.05,4.2,3.89,6.24,5.58,6.58,5.39,12.58,7.47,20.45,10.35,7.56,2.77,10.9,2.83,16.23,3.72,5.32.89,25.03,2.23,25.75-.52.72-2.75-1.64-3.98-4.75-4.73-6.77-1.61-7.69-1.02-14.52-2.26-13.94-2.51-16.81-1.29-29.6-7.67-6.75-3.36-13.02-7.38-17.73-13.41-4.45-5.73-5.91-12.48-6.64-19.41-.1-.9-.16-1.8-.2-2.7.04.9.1,1.8.2,2.7.19,1.76.31,2.95.4,3.81Z"/>
          <path class="cls-1" d="m220.93,308.07l-2.27-.19-2.28-.34-2.23-.5-2.54-.74-3.92-1.32-5.6-1.5s-1.39-.34-8.64-.99c7.27.66,14.36,2.41,20.88,5.9,8.3,4.43,13.04,11.64,15.92,20.32,2.23,6.77,1.99,13.76,2.29,20.73.24,4.9.78,9.78,1.62,14.62.39,2.16,1.29,4.19,2.62,5.93,2.39,3.1,5.98.73,7.48-8.42,1.5-9.15.55-18.32-1.47-28.18-2.03-9.86-8.31-20.41-11.49-22.67-2.79-2.34-5.63-2.34-6.69-2.8l-1.68.14h-1.99Z"/>
          <path class="cls-1" d="m298.86,419.07c-1.77,2.49-3.3,5.13-3.19,8.37.2,5.73,2.93,5.35,7.61,2.07,2.66-1.94,4.96-4.33,6.8-7.07,3.64-5.28,6.96-10.64,9.91-16.1v-25.53c-.43,1.3-.89,2.6-1.37,3.89-4.71,12.53-12.07,23.54-19.76,34.37Z"/>
        </g>
      </g>
    </g>
  </g>
</svg>