<?xml version="1.0" encoding="UTF-8"?>
<svg id="Layer_2" data-name="Layer 2" xmlns="http://www.w3.org/2000/svg" viewBox="0 0 834 1000">
  <defs>
    <style>
      .cls-1 {
        fill: #eba93b;
      }
    </style>
  </defs>
  <g id="Layer_1-2" data-name="Layer 1">
    <path class="cls-1" d="m834,0v597.01c-2.98-6.4-7.24-11.89-13.32-15.93-1.67-1.11-3.47-2.12-5.43-3-7.14-3.2-15.06-4.73-22.71-6.68-16.39-4.18-30.88-11.32-42.14-24.42-3.04-3.51-6.8-6.33-11.03-8.25-2.26-1-4.84-1.84-7.62-2.54-19.44-4.91-48.74-3.17-48.74-3.17h-.02c-.47.02-15.63.24-19.83,1.68l-15.97,2.14c-.71-.43-1.45-.85-2.2-1.25-11.31-6.05-23.58-9.18-36.17-10.44-.16-.02-.33-.03-.49-.05-.23-.02-.46-.04-.69-.06-.02-.01-.05-.01-.07-.01-15.62-1.38-31.31-1.97-46.99-2.48-2.59-.08-5.17-.11-7.75-.11-7.75.01-15.51.3-23.27.39-.57.01-1.09.05-1.54.13-.02.01-.04.01-.05.02-.13.02-.26.05-.39.08-.02.02-.05.02-.07.03-.11.04-.21.07-.31.11-.03.01-.06.03-.09.04-.09.04-.18.08-.26.13-.03.02-.07.04-.09.06-.08.04-.16.09-.23.14-.02.03-.05.05-.08.07-.06.06-.13.12-.19.18-.03.02-.05.05-.07.08-.06.07-.12.13-.17.2-.02.03-.03.06-.05.09-.05.08-.11.16-.14.24-.02.03-.04.06-.05.1-.04.08-.08.17-.12.27,0,.03-.02.07-.03.11-.03.1-.06.2-.09.31-.01.03-.01.07-.02.1-.03.12-.05.24-.07.37,0,.03,0,.06-.01.09-.02.14-.03.28-.04.43-.01.03-.01.05-.01.08,0,.16-.01.32-.01.5v.05c.01.14.01.27.01.43,0,.05,0,.1.01.16.16,2.24.22,4.46.2,6.68-.07,8.99-1.45,17.88-3.06,26.76-.13.74-.27,1.52-.42,2.33-1.82,9.93-3.77,19.88-5.21,29.88-.52,3.62-.97,7.24-1.33,10.88-.14,1.4-.24,2.8-.31,4.19h0s-8.29,25.54-8.29,25.54c-1.5,2.86-2.87,4.83-3.66,6.97.1-.29.21-.62.34-.97-.18.47-.33.9-.45,1.25-1.29,3.75-2.61,7.49-3.91,11.24-.32.92-.63,1.82-.94,2.73-.37,1.07-.74,2.13-1.1,3.2-.24.7-.48,1.41-.72,2.12,0,.03-.02.06-.03.08-1.66,4.92-3.25,9.85-4.68,14.82-.72,2.5-1.38,5.02-1.95,7.54-.35,1.52-.67,3.05-.96,4.57,0,.03-.01.06-.02.09-.14.76-.28,1.52-.4,2.28-.01.06-.03.12-.03.18-.26,1.54-.49,3.08-.67,4.63-.03.23-.06.45-.08.68-.06.51-.12,1.02-.17,1.54-.02.28-.06.57-.08.86-.04.48-.08.96-.11,1.44-.03.28-.06.56-.07.84-.05.69-.09,1.37-.11,2.06-.02.34-.03.69-.04,1.03-.01.4-.03.79-.03,1.18-.01.38-.02.75-.02,1.12v.45c-.01.2,0,.41,0,.61,0,.42,0,.86.02,1.29,0,.46.02.91.04,1.36,0,.29,0,.59.03.89.02.41.04.81.06,1.21.08,1.21.17,2.41.3,3.62.84,7.99,2.23,15.86,5.24,23.17h0s2.92,27.53,2.92,27.53c.71,8.38,1.27,16.17,2.06,23.93.07.66.13,1.32.2,1.98,0,.07,0,.15.02.23.01.07.02.15.03.22.13,1.33.26,2.65.4,3.97.08.81.17,1.62.26,2.44.08.74.16,1.47.24,2.21.12,1.1.25,2.21.38,3.31.39,3.31.82,6.62,1.32,9.91.11.74.22,1.47.33,2.2.23,1.46.48,2.92.74,4.37.26,1.45.53,2.91.83,4.36.35,1.73.73,3.47,1.13,5.19.15.58.29,1.16.43,1.74.21.86.43,1.72.66,2.58.23.86.47,1.71.71,2.57h.01c.25.87.5,1.72.77,2.58.27.85.54,1.7.82,2.55.39,1.13.79,2.26,1.2,3.39,2.92,7.94,5.55,15.99,8.45,23.93.1.28.21.56.32.83,2.33,6.22,5.14,12.2,8.51,17.83,3.36,5.63,7.28,10.91,11.85,15.75.01.01.02.03.04.05,2.52,2.67,5.18,5.07,7.96,7.19h.01s21.84,25.71,21.84,25.71c1.42,3.14,2.48,5.54,3.57,7.9h.01c1.48,3.22,3.05,6.38,4.73,9.45,1.68,3.06,3.49,6.05,5.43,8.94,4.99,7.4,10.94,14.12,18.32,19.76,9.98,7.66,20.86,13.23,33.5,14.11l50.32,3.52H0V0h834Z"/>
    <g>
      <path class="cls-1" d="m803.35,913.19c-1.87-4.12-4.06-8.08-6.58-11.84-2-2.91-2.8-3.12-6.21-3.66-.74-.12,25.43,47.34,43.42,80.63v-43.22c-5.53-1.6-10.91-3.77-16.05-6.5-6.45-3.36-11.59-8.78-14.59-15.4Z"/>
      <path class="cls-1" d="m779.8,900.11c-.57,5.58.88,14.59,3.15,19.78,8.05,18.38,10.79,37.41,9.6,57.29-.57,9.52-4.55,16.78-10.46,22.82h45.58c-2.9-6.35-6.78-15.2-11.97-27.57-18.15-43.29-36.06-73.3-35.9-72.32Z"/>
      <path class="cls-1" d="m728.37,950.74c-3.58,11.12-9.98,20.61-18.27,28.73-8.15,7.99-17.34,14.6-27,20.53l-50.32-3.52c1.29.09,2.61.13,3.95.12,17.51-.16,32.53-6.87,46.03-17.47,12.35-9.7,21.95-21.89,31.46-34.17,1.72-2.32,3.8-4.35,6.14-6.03,3.99-2.7,8.52-.53,8.91,4.29.18,2.54-.13,5.09-.9,7.52Z"/>
      <path class="cls-1" d="m688.26,923.89c-2.09,1.24-4.3,2.3-6.58,3.16-3.12,1.25-6.31,2.33-9.48,3.44-16.04,5.59-32.72,8.96-49.68,11.19-15.28,2.01-29.82,3.79-44.56-1.37-3.34-1.17-6.65-2.46-10.74-3.99l-21.84-25.7c11.48,8.8,25.07,13.08,40.26,13.81,25.24,1.23,73.51-10.25,73.51-10.25,0,0,17.64-4.84,26.65-3.2,3.01.52,6.26,1.31,6.92,4.9.64,3.6-1.56,6.2-4.46,8.01Z"/>
      <path class="cls-1" d="m584.38,711.07c-16.79-5.37-25.11-6.92-44.03-25.17-18.92-18.26-24.96-28.48-31.66-47.85-.4-1.24-.92-2.38-1.71-4.36l8.29-25.53c-1.08,21.12,5.54,40.23,19.77,56.63,14.1,16.25,32.31,26.24,52.39,33.19,7.02,2.44,14.41,4.27,20.07,9.42,4.47,4.03-6.34,9.05-23.12,3.67Z"/>
      <path class="cls-1" d="m618.54,799.53c-1.29,4.92-36.54,2.52-46.06.93-9.53-1.6-15.51-1.7-29.03-6.66-14.08-5.16-24.82-8.88-36.58-18.52-3.65-3.03-7.06-6.31-11.17-9.98l-2.92-27.52c1.65,4.04,3.8,7.91,6.63,11.55,8.42,10.79,19.64,17.97,31.72,23.98,22.87,11.4,28.01,9.22,52.95,13.72,12.21,2.21,13.85,1.16,25.97,4.04,5.55,1.34,9.79,3.53,8.49,8.46Z"/>
      <path class="cls-1" d="m698.5,630.74c-2.69,16.37-9.1,20.6-13.37,15.06-2.39-3.11-3.99-6.75-4.69-10.61-1.5-8.65-2.47-17.39-2.89-26.15-.54-12.47-.1-24.98-4.09-37.09-4.88-14.75-12.78-27.11-26.27-35.11l15.97-2.14c.05.03,7.16.89,12.15,5.08,5.69,4.03,16.93,22.9,20.56,40.55,3.61,17.65,5.31,34.04,2.63,50.41Z"/>
      <path class="cls-1" d="m796.18,733.58c-3.16,4.46-5.9,9.17-5.7,14.96.35,10.25,5.24,9.57,13.62,3.69,4.76-3.47,8.88-7.75,12.17-12.64,6.51-9.45,12.45-19.04,17.72-28.8v-45.66c-.76,2.33-1.59,4.65-2.46,6.97-8.43,22.41-21.58,42.12-35.35,61.48Z"/>
    </g>
  </g>
</svg>