<?xml version="1.0" encoding="UTF-8"?>
<svg id="Layer_2" data-name="Layer 2" xmlns="http://www.w3.org/2000/svg" viewBox="0 0 1024 1172">
  <defs>
    <style>
      .cls-1 {
        fill: #eba93b;
      }
    </style>
  </defs>
  <g id="Layer_1-2" data-name="Layer 1">
    <path class="cls-1" d="m1024,0v712.8c-3.39-7.29-8.24-13.54-15.17-18.15-1.9-1.27-3.96-2.42-6.19-3.42-8.13-3.65-17.16-5.38-25.88-7.61-18.67-4.77-35.18-12.9-48.01-27.83-3.47-4-7.75-7.21-12.57-9.4-2.58-1.13-5.51-2.09-8.68-2.89-22.16-5.59-55.54-3.61-55.54-3.61h-.02c-.55.01-17.82.27-22.6,1.91l-18.2,2.44c-.81-.49-1.65-.97-2.51-1.42-12.88-6.9-26.86-10.47-41.21-11.91-.18,0-.37-.02-.56-.05-.26-.02-.52-.05-.79-.07-.02,0-.05,0-.07,0-17.8-1.57-35.69-2.24-53.55-2.82-2.95-.1-5.89-.13-8.83-.13-8.83.01-17.67.34-26.51.44-.66.01-1.25.06-1.77.16-.01,0-.03,0-.05.01-.15.03-.29.07-.44.1-.03.02-.06.02-.08.03-.13.04-.24.08-.36.13-.04,0-.06.03-.1.04-.1.05-.2.1-.3.15-.03.02-.07.04-.1.06-.09.05-.18.11-.26.17-.03.03-.06.06-.09.08-.07.06-.15.13-.22.2-.03.03-.05.06-.08.1-.06.07-.13.14-.19.22-.02.04-.04.07-.06.11-.06.09-.12.17-.16.27-.02.03-.04.07-.06.11-.04.1-.09.2-.13.31-.01.03-.02.08-.04.12-.03.11-.07.23-.1.35-.01.04-.01.08-.03.13-.02.13-.05.26-.07.41-.01.03-.01.07-.01.11-.02.16-.04.32-.05.49v.09c-.01.18-.02.36-.02.57v.05c.01.16.01.32.02.49v.19c.19,2.54.25,5.08.23,7.61-.08,10.24-1.65,20.37-3.49,30.49-.15.85-.31,1.74-.48,2.66-2.07,11.31-4.29,22.65-5.93,34.04-.59,4.13-1.11,8.26-1.51,12.4-.16,1.6-.28,3.19-.36,4.78l-9.45,29.09c-1.79,3.4-3.41,5.71-4.28,8.27.1-.3.22-.65.36-1.03-.14.38-.27.73-.37,1.03-1.48,4.27-2.98,8.53-4.46,12.81-.36,1.04-.71,2.07-1.07,3.11-.42,1.21-.84,2.43-1.26,3.64-.27.81-.54,1.61-.81,2.42-.01.03-.02.06-.03.09-1.9,5.6-3.71,11.22-5.34,16.89-.82,2.85-1.57,5.72-2.23,8.59-.39,1.73-.76,3.47-1.08,5.2-.01.04-.02.08-.02.11-.17.86-.32,1.73-.47,2.59-.01.08-.03.14-.03.21-.3,1.76-.55,3.52-.76,5.28-.04.26-.07.52-.1.78-.06.57-.13,1.16-.18,1.75-.03.32-.07.65-.1.97-.05.55-.09,1.1-.13,1.65-.03.32-.06.64-.07.96-.06.78-.1,1.56-.13,2.34-.02.39-.03.79-.04,1.18-.02.45-.03.9-.04,1.34-.01.43-.02.86-.02,1.28v.51c-.01.23,0,.46,0,.7,0,.48,0,.97.02,1.46,0,.52.02,1.04.04,1.55.02.34.02.68.04,1.02.02.46.04.92.07,1.37.09,1.39.2,2.75.34,4.13.96,9.11,2.54,18.07,5.97,26.4v.02s3.33,31.35,3.33,31.35c.81,9.55,1.44,18.43,2.35,27.27.08.75.15,1.5.22,2.26.01.08.01.17.03.26.01.08.02.17.03.25.15,1.51.3,3.02.46,4.52.09.93.2,1.85.3,2.78.09.84.18,1.68.27,2.52.14,1.26.28,2.52.44,3.78.44,3.77.93,7.53,1.49,11.29.13.84.26,1.67.39,2.5.26,1.66.54,3.33.84,4.98.29,1.66.6,3.32.94,4.97.4,1.98.83,3.95,1.29,5.92.17.66.33,1.31.49,1.98.23.98.49,1.96.75,2.94s.53,1.95.81,2.93c0,0,.01,0,.01.01.28.98.57,1.95.88,2.92.3.98.61,1.95.94,2.91.43,1.29.89,2.58,1.36,3.86,3.32,9.05,6.32,18.22,9.63,27.28.11.31.23.63.36.94,2.66,7.08,5.86,13.9,9.7,20.31,3.83,6.42,8.3,12.44,13.5,17.95,0,.02.03.04.05.06,2.87,3.04,5.9,5.77,9.07,8.2h.01l24.89,29.29c1.61,3.58,2.82,6.31,4.07,9h0c1.69,3.67,3.48,7.27,5.4,10.77,1.91,3.49,3.97,6.9,6.18,10.18,5.69,8.44,12.47,16.09,20.88,22.52,11.37,8.73,23.77,15.08,38.17,16.08l57.34,4.01H0V0h1024Z"/>
    <g>
      <path class="cls-1" d="m989.09,1073.08c-2.13-4.7-4.63-9.21-7.49-13.5-2.28-3.31-3.19-3.56-7.07-4.17-.84-.14,28.98,53.94,49.48,91.88v-49.24c-6.3-1.82-12.43-4.29-18.28-7.41-7.35-3.83-13.2-10.01-16.63-17.55Z"/>
      <path class="cls-1" d="m962.25,1058.17c-.65,6.36,1,16.62,3.59,22.54,9.17,20.94,12.3,42.63,10.94,65.28-.65,10.85-5.18,19.12-11.92,26h51.94c-3.31-7.23-7.73-17.32-13.64-31.42-20.68-49.33-41.09-83.52-40.91-82.41Z"/>
      <path class="cls-1" d="m903.64,1115.87c-4.08,12.67-11.37,23.49-20.81,32.74-9.3,9.1-19.76,16.63-30.77,23.39l-57.34-4.01c1.47.1,2.98.15,4.5.14,19.95-.18,37.07-7.83,52.45-19.91,14.07-11.05,25.01-24.94,35.85-38.94,1.96-2.64,4.33-4.96,7-6.87,4.54-3.08,9.71-.61,10.14,4.89.21,2.89-.13,5.8-1.02,8.57Z"/>
      <path class="cls-1" d="m857.94,1085.27c-2.39,1.42-4.9,2.63-7.5,3.61-3.55,1.42-7.19,2.65-10.81,3.92-18.27,6.36-37.28,10.21-56.6,12.75-17.41,2.29-33.98,4.31-50.78-1.57-3.8-1.33-7.57-2.8-12.23-4.54l-24.89-29.29c13.08,10.03,28.57,14.9,45.88,15.74,28.76,1.4,83.76-11.68,83.76-11.68,0,0,20.09-5.51,30.36-3.65,3.43.59,7.14,1.5,7.89,5.59.74,4.09-1.78,7.07-5.08,9.12Z"/>
      <path class="cls-1" d="m739.57,842.77c-19.13-6.12-28.61-7.88-50.17-28.68-21.56-20.8-28.45-32.45-36.07-54.52-.47-1.42-1.06-2.71-1.96-4.98l9.45-29.09c-1.24,24.07,6.31,45.84,22.53,64.53,16.06,18.53,36.81,29.9,59.69,37.83,8.01,2.78,16.42,4.86,22.87,10.73,5.09,4.6-7.22,10.31-26.34,4.18Z"/>
      <path class="cls-1" d="m778.5,943.57c-1.47,5.6-41.64,2.87-52.49,1.05-10.86-1.82-17.67-1.93-33.08-7.58-16.05-5.88-28.28-10.12-41.69-21.11-4.15-3.45-8.04-7.19-12.72-11.37l-3.32-31.35c1.88,4.6,4.33,9.01,7.55,13.15,9.59,12.3,22.38,20.49,36.14,27.34,26.06,12.99,31.92,10.5,60.33,15.62,13.93,2.52,15.79,1.33,29.6,4.61,6.33,1.52,11.15,4.03,9.68,9.64Z"/>
      <path class="cls-1" d="m869.61,751.24c-3.06,18.65-10.37,23.47-15.24,17.16-2.72-3.55-4.54-7.7-5.34-12.09-1.71-9.86-2.81-19.81-3.29-29.8-.62-14.21-.12-28.47-4.67-42.26-5.56-16.81-14.56-30.9-29.93-40.01l18.2-2.44c.06.04,8.16,1.01,13.84,5.79,6.49,4.6,19.3,26.1,23.42,46.2,4.13,20.11,6.07,38.79,3.01,57.45Z"/>
      <path class="cls-1" d="m980.91,868.42c-3.6,5.08-6.72,10.45-6.49,17.05.4,11.68,5.97,10.91,15.52,4.21,5.42-3.96,10.12-8.83,13.86-14.4,7.42-10.76,14.19-21.69,20.2-32.82v-52.03c-.87,2.65-1.81,5.3-2.8,7.94-9.61,25.54-24.6,47.99-40.29,70.05Z"/>
    </g>
  </g>
</svg>