<?xml version="1.0" encoding="UTF-8"?>
<svg id="Layer_2" data-name="Layer 2" xmlns="http://www.w3.org/2000/svg" viewBox="0 0 23.99 24">
  <defs>
    <style>
      .cls-1 {
        fill: #1f8a17;
      }
    </style>
  </defs>
  <g id="Layer_1-2" data-name="Layer 1">
    <path id="complete" className="cls-1" d="m23.99,11.3v1.41l-.06.51c-.56,5.34-4.59,9.67-9.88,10.6-.45.08-.91.12-1.36.19h-1.4c-.4-.05-.81-.09-1.2-.15C3.83,22.82-.56,17.11.06,10.8c.22-2.5,1.25-4.85,2.93-6.71C5.13,1.61,8.21.13,11.49.02c2.33-.13,4.64.45,6.62,1.67,3.03,1.77,5.12,4.79,5.7,8.24.08.45.12.91.18,1.37Zm-13.85,2.7c-.47-.43-.91-.83-1.35-1.23-.66-.6-1.31-1.21-1.98-1.79-.5-.4-1.23-.32-1.63.18-.14.18-.23.39-.25.62-.04.42.14.83.47,1.09,1.29,1.17,2.58,2.34,3.86,3.52.44.5,1.2.56,1.7.12.06-.05.11-.1.16-.16,2.48-2.46,4.96-4.92,7.44-7.38.07-.07.14-.14.21-.22.42-.51.35-1.27-.16-1.69-.06-.05-.12-.09-.18-.12-.52-.3-1.17-.17-1.55.29-2.18,2.18-4.37,4.36-6.55,6.55-.07.08-.14.15-.2.24h0Z"/>
  </g>
</svg>