<?xml version="1.0" encoding="UTF-8"?>
<svg id="Layer_2" data-name="Layer 2" xmlns="http://www.w3.org/2000/svg" viewBox="0 0 22.01 23.99">
  <defs>
    <style>
      .cls-1 {
        fill: #faa819;
      }
    </style>
  </defs>
  <g id="Layer_1-2" data-name="Layer 1">
    <g id="waiting-list">
      <path id="Path_2628" data-name="Path 2628" class="cls-1" d="m16.68,23.99c-.48-.09-.94-.22-1.4-.38-1.74-.68-2.92-2.3-3.03-4.16-.19-2.69,1.83-5.03,4.53-5.22,2.69-.19,5.03,1.83,5.22,4.53.18,2.59-1.69,4.87-4.27,5.19-.04.01-.08.02-.12.04h-.92Zm.92-5.48v-2.56c.03-.32-.2-.61-.52-.64-.02,0-.03,0-.05,0-.31-.01-.58.23-.59.54,0,.02,0,.04,0,.07-.01,1.06-.01,2.12,0,3.18-.02.31.21.58.52.6.03,0,.05,0,.08,0,.67.01,1.34.02,2.01,0,.16-.02.32-.09.44-.2.17-.16.21-.42.1-.63-.08-.22-.3-.37-.54-.36-.47,0-.94,0-1.45,0h0Z"/>
      <path id="Path_2629" data-name="Path 2629" class="cls-1" d="m20.6,13.41c-2.79-1.8-6.5-1.17-8.54,1.46-2.02,2.66-1.81,6.4.51,8.81-.1,0-.18.02-.26.02-1.68-.01-3.36.01-5.03-.05-1.08,0-2.15-.16-3.18-.45-2.11-.69-3.6-2.56-3.81-4.77C0,15.21-.07,11.96.07,8.73c.04-1.17.1-2.34.24-3.5C.5,3.14,1.88,1.34,3.85.63c.75-.25,1.52-.39,2.31-.42C8.48-.02,10.82-.06,13.15.08c1.03.04,2.05.16,3.06.38,2.21.53,3.85,2.38,4.11,4.64.14,1.16.2,2.33.23,3.5.05,1.54.04,3.09.06,4.64,0,.05,0,.1,0,.18Zm-10.28-4.93h4.91c.62.02,1.14-.46,1.16-1.08.02-.62-.46-1.14-1.08-1.16-.04,0-.07,0-.11,0H5.26c-.62.05-1.08.58-1.03,1.2.05.6.56,1.05,1.16,1.03,1.65,0,3.29,0,4.94,0Zm-2.12,2.54h-2.79c-.16,0-.32.03-.47.08-.57.23-.85.89-.61,1.46.18.43.61.71,1.07.69h5.55c.15,0,.29-.02.43-.07.51-.18.82-.7.72-1.23-.08-.53-.53-.93-1.07-.93-.95,0-1.89,0-2.84,0h0Z"/>
    </g>
  </g>
</svg>